<svg id="visual" viewBox="0 0 900 300" width="900" height="300" xmlns="http://www.w3.org/2000/svg" xmlns:xlink="http://www.w3.org/1999/xlink" version="1.1"><rect x="0" y="0" width="900" height="300" fill="#001122"></rect><g transform="translate(477.4289736725177 162.53234586275826)"><path d="M76.5 -97.3C103.2 -68.7 131.9 -48.5 135.7 -24.3C139.5 -0.1 118.5 28.1 102.1 61.4C85.8 94.8 74.2 133.4 49.8 146.4C25.4 159.4 -11.7 146.9 -44.1 130.9C-76.5 114.9 -104.1 95.5 -132.8 66.6C-161.6 37.6 -191.6 -0.7 -191 -38.8C-190.4 -76.9 -159.1 -114.7 -122.2 -141.5C-85.3 -168.3 -42.6 -184.1 -8.9 -173.6C24.9 -163 49.7 -125.9 76.5 -97.3" fill="#ff0066"></path></g></svg>