<svg id="visual" viewBox="0 0 900 300" width="900" height="300" xmlns="http://www.w3.org/2000/svg" xmlns:xlink="http://www.w3.org/1999/xlink" version="1.1"><rect x="0" y="0" width="900" height="300" fill="#001122"></rect><g transform="translate(432.74257378843765 179.08215900337927)"><path d="M99.9 -112.3C136.9 -88.1 179.2 -63.6 179.7 -35.4C180.2 -7.3 138.8 24.5 108.4 49C78.1 73.5 58.7 90.8 35.6 100.4C12.4 109.9 -14.5 111.8 -45.3 107.8C-76.1 103.8 -110.8 93.9 -128.5 70.6C-146.2 47.3 -147 10.6 -143.6 -28.3C-140.3 -67.2 -132.8 -108.3 -108.2 -134.6C-83.6 -160.9 -41.8 -172.5 -5.1 -166.3C31.5 -160.2 63 -136.4 99.9 -112.3" fill="#ff0066"></path></g></svg>