<svg id="visual" viewBox="0 0 1920 1080" width="1920" height="1080" xmlns="http://www.w3.org/2000/svg" xmlns:xlink="http://www.w3.org/1999/xlink" version="1.1"><rect x="0" y="0" width="1920" height="1080" fill="#001122"></rect><g transform="translate(892.6285734407377 531.9377631691713)"><path d="M372.2 -392.6C483 -350.6 573.9 -233.9 557.2 -127.9C540.6 -21.9 416.4 73.4 330.6 161.6C244.8 249.7 197.3 330.6 121 378.3C44.7 426 -60.4 440.4 -167.5 419.2C-274.6 398 -383.7 341.3 -414.5 255.2C-445.4 169.1 -398 53.6 -358.2 -44.2C-318.4 -142.1 -286.1 -222.3 -227.7 -273.5C-169.3 -324.7 -84.6 -346.9 23 -374.3C130.7 -401.8 261.4 -434.5 372.2 -392.6" fill="#ff0066"></path></g></svg>